<svg xmlns="http://www.w3.org/2000/svg" xmlns:xlink="http://www.w3.org/1999/xlink" width="650" zoomAndPan="magnify" viewBox="0 0 487.5 159.750002" height="213" preserveAspectRatio="xMidYMid meet" version="1.0"><defs><g/><clipPath id="af91d235a6"><path d="M 275.328125 10.226562 L 287.800781 10.226562 L 287.800781 22.699219 L 275.328125 22.699219 Z M 275.328125 10.226562 " clip-rule="nonzero"/></clipPath><clipPath id="b07bf95d3c"><path d="M 281.566406 10.226562 C 278.121094 10.226562 275.328125 13.019531 275.328125 16.464844 C 275.328125 19.90625 278.121094 22.699219 281.566406 22.699219 C 285.007812 22.699219 287.800781 19.90625 287.800781 16.464844 C 287.800781 13.019531 285.007812 10.226562 281.566406 10.226562 Z M 281.566406 10.226562 " clip-rule="nonzero"/></clipPath><clipPath id="b82ae42aaf"><path d="M 275.328125 10.226562 L 287.789062 10.226562 L 287.789062 22.6875 L 275.328125 22.6875 Z M 275.328125 10.226562 " clip-rule="nonzero"/></clipPath><clipPath id="ebda1a94c3"><path d="M 281.558594 10.226562 C 278.117188 10.226562 275.328125 13.015625 275.328125 16.457031 C 275.328125 19.898438 278.117188 22.6875 281.558594 22.6875 C 285 22.6875 287.789062 19.898438 287.789062 16.457031 C 287.789062 13.015625 285 10.226562 281.558594 10.226562 Z M 281.558594 10.226562 " clip-rule="nonzero"/></clipPath><clipPath id="c64c1d27ea"><path d="M 66 39.902344 L 137.949219 39.902344 L 137.949219 127 L 66 127 Z M 66 39.902344 " clip-rule="nonzero"/></clipPath><clipPath id="32a888f45e"><path d="M 92 148 L 113 148 L 113 153.722656 L 92 153.722656 Z M 92 148 " clip-rule="nonzero"/></clipPath><clipPath id="d210776846"><path d="M 68 42.648438 L 135.878906 42.648438 L 135.878906 124 L 68 124 Z M 68 42.648438 " clip-rule="nonzero"/></clipPath><clipPath id="5500ad675a"><path d="M 85 124 L 119 124 L 119 124.269531 L 85 124.269531 Z M 85 124 " clip-rule="nonzero"/></clipPath><clipPath id="3e4a20aac1"><path d="M 26 7 L 136 7 L 136 90 L 26 90 Z M 26 7 " clip-rule="nonzero"/></clipPath><clipPath id="6b40dba3b2"><path d="M 20.195312 48.675781 L 128.609375 -5.753906 L 152.464844 41.761719 L 44.050781 96.191406 Z M 20.195312 48.675781 " clip-rule="nonzero"/></clipPath><clipPath id="d0cb891da6"><path d="M 128.546875 -5.71875 L 20.132812 48.707031 L 43.988281 96.222656 L 152.402344 41.792969 Z M 128.546875 -5.71875 " clip-rule="nonzero"/></clipPath><clipPath id="101fc0a895"><path d="M 33 10 L 129 10 L 129 75 L 33 75 Z M 33 10 " clip-rule="nonzero"/></clipPath><clipPath id="d6967709ea"><path d="M 20.195312 48.675781 L 128.609375 -5.753906 L 152.464844 41.761719 L 44.050781 96.191406 Z M 20.195312 48.675781 " clip-rule="nonzero"/></clipPath><clipPath id="e829b80f87"><path d="M 128.546875 -5.71875 L 20.132812 48.707031 L 43.988281 96.222656 L 152.402344 41.792969 Z M 128.546875 -5.71875 " clip-rule="nonzero"/></clipPath><clipPath id="3699fc43dc"><path d="M 43 33 L 78 33 L 78 90 L 43 90 Z M 43 33 " clip-rule="nonzero"/></clipPath><clipPath id="37dad4d27e"><path d="M 20.195312 48.675781 L 128.609375 -5.753906 L 152.464844 41.761719 L 44.050781 96.191406 Z M 20.195312 48.675781 " clip-rule="nonzero"/></clipPath><clipPath id="f1e9e61bbf"><path d="M 128.546875 -5.71875 L 20.132812 48.707031 L 43.988281 96.222656 L 152.402344 41.792969 Z M 128.546875 -5.71875 " clip-rule="nonzero"/></clipPath><clipPath id="726144938b"><path d="M 43 37 L 70 37 L 70 83 L 43 83 Z M 43 37 " clip-rule="nonzero"/></clipPath><clipPath id="ed3e89d330"><path d="M 20.195312 48.675781 L 128.609375 -5.753906 L 152.464844 41.761719 L 44.050781 96.191406 Z M 20.195312 48.675781 " clip-rule="nonzero"/></clipPath><clipPath id="257c03b786"><path d="M 128.546875 -5.71875 L 20.132812 48.707031 L 43.988281 96.222656 L 152.402344 41.792969 Z M 128.546875 -5.71875 " clip-rule="nonzero"/></clipPath><clipPath id="fc662025bf"><path d="M 273.515625 33.335938 L 286.246094 33.335938 L 286.246094 152.398438 L 273.515625 152.398438 Z M 273.515625 33.335938 " clip-rule="nonzero"/></clipPath><clipPath id="5cdab593f1"><path d="M 273.515625 33.335938 L 286.246094 33.335938 L 286.246094 152.398438 L 273.515625 152.398438 Z M 273.515625 33.335938 " clip-rule="nonzero"/></clipPath></defs><g fill="#181751" fill-opacity="1"><g transform="translate(147.450121, 114.412081)"><g><path d="M 54.40625 -64.671875 L 54.40625 -22.96875 C 54.40625 -15.019531 52.257812 -9.007812 47.96875 -4.9375 C 43.6875 -0.863281 37.414062 1.171875 29.15625 1.171875 C 20.90625 1.171875 14.632812 -0.863281 10.34375 -4.9375 C 6.0625 -9.007812 3.921875 -15.019531 3.921875 -22.96875 L 3.921875 -64.671875 L 18.65625 -64.671875 L 18.65625 -27.28125 C 18.65625 -22.050781 19.476562 -18.414062 21.125 -16.375 C 22.769531 -14.34375 25.445312 -13.328125 29.15625 -13.328125 C 32.875 -13.328125 35.554688 -14.34375 37.203125 -16.375 C 38.847656 -18.414062 39.671875 -22.050781 39.671875 -27.28125 L 39.671875 -64.671875 Z M 54.40625 -64.671875 "/></g></g></g><g fill="#181751" fill-opacity="1"><g transform="translate(205.759514, 114.412081)"><g><path d="M 19.4375 -40.140625 L 19.4375 0 L 4.703125 0 L 4.703125 -64.671875 L 19.4375 -64.671875 L 45.15625 -24.53125 L 45.3125 -24.53125 L 45.3125 -64.671875 L 60.046875 -64.671875 L 60.046875 0 L 45.3125 0 L 19.59375 -40.140625 Z M 19.4375 -40.140625 "/></g></g></g><g fill="#181751" fill-opacity="1"><g transform="translate(270.495476, 114.412081)"><g/></g></g><g fill="#181751" fill-opacity="1"><g transform="translate(291.891259, 114.412081)"><g><path d="M 37.546875 -64.671875 L 63.65625 0 L 47.8125 0 L 43.03125 -12.9375 L 18.421875 -12.9375 L 13.640625 0 L -2.1875 0 L 23.90625 -64.671875 Z M 38.015625 -25.875 L 30.8125 -44.6875 L 30.65625 -44.6875 L 23.4375 -25.875 Z M 38.015625 -25.875 "/></g></g></g><g fill="#181751" fill-opacity="1"><g transform="translate(353.335566, 114.412081)"><g><path d="M 39.109375 -13.328125 C 41.359375 -13.328125 43.539062 -13.664062 45.65625 -14.34375 C 47.78125 -15.019531 49.335938 -15.675781 50.328125 -16.3125 L 51.8125 -17.328125 L 58.09375 -4.78125 C 57.882812 -4.625 57.59375 -4.414062 57.21875 -4.15625 C 56.851562 -3.894531 56.003906 -3.410156 54.671875 -2.703125 C 53.335938 -1.992188 51.910156 -1.378906 50.390625 -0.859375 C 48.878906 -0.335938 46.894531 0.128906 44.4375 0.546875 C 41.988281 0.960938 39.457031 1.171875 36.84375 1.171875 C 30.832031 1.171875 25.132812 -0.300781 19.75 -3.25 C 14.375 -6.207031 10.035156 -10.269531 6.734375 -15.4375 C 3.441406 -20.613281 1.796875 -26.207031 1.796875 -32.21875 C 1.796875 -36.757812 2.765625 -41.117188 4.703125 -45.296875 C 6.640625 -49.484375 9.210938 -53.066406 12.421875 -56.046875 C 15.640625 -59.023438 19.390625 -61.398438 23.671875 -63.171875 C 27.960938 -64.953125 32.351562 -65.84375 36.84375 -65.84375 C 41.019531 -65.84375 44.875 -65.347656 48.40625 -64.359375 C 51.9375 -63.367188 54.429688 -62.375 55.890625 -61.375 L 58.09375 -59.890625 L 51.8125 -47.34375 C 51.445312 -47.65625 50.898438 -48.035156 50.171875 -48.484375 C 49.441406 -48.929688 47.976562 -49.519531 45.78125 -50.25 C 43.582031 -50.976562 41.359375 -51.34375 39.109375 -51.34375 C 35.554688 -51.34375 32.367188 -50.765625 29.546875 -49.609375 C 26.722656 -48.460938 24.488281 -46.945312 22.84375 -45.0625 C 21.195312 -43.1875 19.941406 -41.164062 19.078125 -39 C 18.222656 -36.832031 17.796875 -34.625 17.796875 -32.375 C 17.796875 -27.457031 19.632812 -23.050781 23.3125 -19.15625 C 27 -15.269531 32.265625 -13.328125 39.109375 -13.328125 Z M 39.109375 -13.328125 "/></g></g></g><g clip-path="url(#af91d235a6)"><g clip-path="url(#b07bf95d3c)"><path fill="#fbb215" d="M 275.328125 10.226562 L 287.800781 10.226562 L 287.800781 22.699219 L 275.328125 22.699219 Z M 275.328125 10.226562 " fill-opacity="1" fill-rule="nonzero"/></g></g><g clip-path="url(#b82ae42aaf)"><g clip-path="url(#ebda1a94c3)"><path stroke-linecap="butt" transform="matrix(0.748828, 0, 0, 0.748828, 275.328879, 10.22792)" fill="none" stroke-linejoin="miter" d="M 8.319285 -0.00181327 C 3.723562 -0.00181327 -0.0010073 3.722756 -0.0010073 8.318479 C -0.0010073 12.914202 3.723562 16.638771 8.319285 16.638771 C 12.915008 16.638771 16.639577 12.914202 16.639577 8.318479 C 16.639577 3.722756 12.915008 -0.00181327 8.319285 -0.00181327 Z M 8.319285 -0.00181327 " stroke="#181751" stroke-width="2" stroke-opacity="1" stroke-miterlimit="4"/></g></g><g clip-path="url(#c64c1d27ea)"><path fill="#181751" d="M 138.066406 75.535156 C 137.398438 56.789062 121.378906 39.96875 102.117188 39.96875 C 81.371094 39.96875 63.828125 59.441406 66.335938 80.355469 C 67.695312 93.097656 74.242188 100.949219 78.308594 107.59375 C 82.207031 113.960938 85.609375 123.78125 86.027344 126.21875 L 95.480469 126.21875 L 95.527344 126.515625 L 108.652344 126.515625 L 108.695312 126.21875 L 118.199219 126.21875 C 118.617188 123.78125 122.023438 113.960938 125.921875 107.59375 C 129.988281 100.949219 136.527344 93.097656 137.894531 80.355469 C 138.066406 78.742188 138.117188 77.132812 138.066406 75.535156 " fill-opacity="1" fill-rule="nonzero"/></g><path fill="#181751" d="M 116.925781 127.289062 L 87.257812 127.289062 C 85.632812 127.289062 84.316406 128.605469 84.316406 130.226562 C 84.316406 131.855469 85.632812 133.167969 87.257812 133.167969 L 116.925781 133.167969 C 118.550781 133.167969 119.863281 131.855469 119.863281 130.226562 C 119.863281 128.605469 118.550781 127.289062 116.925781 127.289062 " fill-opacity="1" fill-rule="nonzero"/><path fill="#181751" d="M 116.925781 134.292969 L 87.257812 134.292969 C 85.632812 134.292969 84.316406 135.609375 84.316406 137.234375 C 84.316406 138.859375 85.632812 140.171875 87.257812 140.171875 L 116.925781 140.171875 C 118.550781 140.171875 119.863281 138.859375 119.863281 137.234375 C 119.863281 135.609375 118.550781 134.292969 116.925781 134.292969 " fill-opacity="1" fill-rule="nonzero"/><path fill="#181751" d="M 116.925781 141.296875 L 87.257812 141.296875 C 85.632812 141.296875 84.316406 142.613281 84.316406 144.234375 C 84.316406 145.863281 85.632812 147.175781 87.257812 147.175781 L 116.925781 147.175781 C 118.550781 147.175781 119.863281 145.863281 119.863281 144.234375 C 119.863281 142.613281 118.550781 141.296875 116.925781 141.296875 " fill-opacity="1" fill-rule="nonzero"/><g clip-path="url(#32a888f45e)"><path fill="#181751" d="M 102.09375 153.703125 C 106.675781 153.703125 110.570312 151.691406 112.101562 148.871094 L 92.082031 148.871094 C 93.613281 151.691406 97.5 153.703125 102.09375 153.703125 " fill-opacity="1" fill-rule="nonzero"/></g><g clip-path="url(#d210776846)"><path fill="#fbb215" d="M 135.648438 75.960938 C 135.023438 58.433594 120.046875 42.714844 102.042969 42.714844 C 82.648438 42.714844 66.25 60.917969 68.59375 80.46875 C 69.863281 92.375 75.984375 99.714844 79.785156 105.929688 C 83.429688 111.878906 86.609375 121.058594 87.003906 123.339844 L 95.839844 123.339844 L 95.882812 123.617188 L 108.148438 123.617188 L 108.191406 123.339844 L 117.074219 123.339844 C 117.46875 121.058594 120.648438 111.878906 124.292969 105.929688 C 128.09375 99.714844 134.207031 92.375 135.484375 80.46875 C 135.648438 78.957031 135.695312 77.453125 135.648438 75.960938 " fill-opacity="1" fill-rule="nonzero"/></g><g clip-path="url(#5500ad675a)"><path fill="#fbb215" d="M 115.882812 124.339844 L 88.152344 124.339844 C 86.632812 124.339844 85.402344 125.570312 85.402344 127.085938 C 85.402344 128.609375 86.632812 129.835938 88.152344 129.835938 L 115.882812 129.835938 C 117.402344 129.835938 118.628906 128.609375 118.628906 127.085938 C 118.628906 125.570312 117.402344 124.339844 115.882812 124.339844 " fill-opacity="1" fill-rule="nonzero"/></g><g clip-path="url(#3e4a20aac1)"><g clip-path="url(#6b40dba3b2)"><g clip-path="url(#d0cb891da6)"><path fill="#000000" d="M 50.347656 89.371094 C 50.90625 89.726562 51.515625 89.285156 51.980469 88.890625 C 52.980469 88.042969 53.386719 86.796875 54.082031 85.644531 C 54.753906 86.765625 55.105469 87.996094 55.988281 88.886719 C 56.265625 89.167969 56.5 89.707031 57 89.523438 C 57.488281 89.34375 57.363281 88.8125 57.378906 88.398438 C 57.433594 86.8125 56.859375 85.402344 56.078125 83.890625 C 57.078125 84.285156 57.824219 84.90625 58.746094 85.113281 C 59.117188 85.199219 59.507812 85.445312 59.878906 85.238281 C 60.257812 85.027344 60.851562 85.160156 60.980469 84.539062 C 61.109375 83.910156 60.585938 83.773438 60.234375 83.511719 C 58.917969 82.519531 57.328125 81.96875 56.058594 80.902344 C 55.785156 80.570312 55.511719 80.234375 55.238281 79.902344 C 55.625 77.457031 55.144531 76.585938 52.761719 75.40625 C 52.808594 74.84375 52.515625 74.402344 52.257812 73.945312 C 51.875 72.871094 51.496094 71.792969 51.113281 70.71875 C 50.957031 70.25 50.800781 69.78125 50.644531 69.3125 C 50.15625 68.015625 49.667969 66.71875 49.183594 65.421875 C 48.9375 64.917969 48.691406 64.414062 48.445312 63.910156 C 48.183594 62.839844 47.804688 61.8125 47.335938 60.816406 C 47.089844 60.296875 46.847656 59.777344 46.605469 59.257812 C 46.25 59.144531 45.90625 58.996094 45.558594 58.851562 C 45.90625 58.996094 46.25 59.148438 46.605469 59.257812 C 46.746094 58.804688 46.449219 58.453125 46.28125 58.09375 C 45.972656 57.445312 46.136719 57.039062 46.792969 56.804688 C 49.289062 56.214844 51.796875 55.667969 54.28125 55.027344 C 56.128906 54.550781 56.144531 54.480469 56.917969 56.144531 C 57.972656 58.417969 59.214844 60.601562 60.308594 62.851562 C 61.617188 65.558594 62.683594 68.382812 63.90625 71.128906 C 64.585938 72.660156 65.390625 74.136719 66.097656 75.660156 C 66.292969 76.085938 66.613281 75.941406 66.890625 75.96875 C 69.46875 76.214844 72.011719 75.871094 74.550781 75.5 C 77.265625 75.105469 79.949219 74.589844 82.613281 73.917969 C 86.230469 73.003906 89.785156 71.894531 93.167969 70.324219 C 97.027344 68.53125 100.917969 66.769531 104.511719 64.488281 C 110.839844 60.46875 116.511719 55.65625 121.289062 49.855469 C 123.136719 47.609375 123.140625 47.546875 121.726562 45.039062 C 120.71875 43.257812 119.730469 41.472656 118.660156 39.722656 C 117.484375 37.796875 116.667969 35.648438 115.511719 33.707031 C 114.265625 31.617188 113.300781 29.40625 112.273438 27.214844 C 111.988281 26.609375 112.136719 26.308594 112.539062 25.980469 C 114.824219 24.101562 117.109375 22.222656 119.402344 20.359375 C 121.511719 18.648438 123.609375 16.929688 125.75 15.265625 C 128.398438 13.203125 131.132812 11.25 133.703125 9.082031 C 134.246094 8.628906 134.765625 8.164062 135.207031 7.542969 C 134.359375 7.304688 133.660156 7.640625 132.957031 7.800781 C 129.113281 8.675781 125.273438 9.5625 121.445312 10.5 C 117.039062 11.582031 112.566406 12.324219 108.15625 13.363281 C 102.800781 14.625 97.421875 15.796875 92.085938 17.121094 C 88.769531 17.941406 85.445312 18.753906 82.144531 19.648438 C 79.773438 20.292969 77.410156 20.972656 74.980469 21.390625 C 74.476562 21.476562 74.101562 21.769531 73.71875 22.113281 C 70.550781 24.976562 67.140625 27.546875 63.859375 30.269531 C 60.671875 32.90625 57.417969 35.460938 54.285156 38.164062 C 52.335938 39.847656 50.386719 41.539062 48.414062 43.191406 C 46.367188 44.90625 44.316406 46.617188 42.375 48.4375 C 39.699219 50.949219 36.804688 53.195312 33.992188 55.542969 C 31.71875 57.4375 29.511719 59.40625 27.273438 61.335938 C 27.105469 61.480469 26.945312 61.617188 26.90625 62.039062 C 32.546875 60.964844 37.921875 59.027344 43.457031 57.738281 C 43.558594 57.9375 43.664062 58.136719 43.761719 58.339844 C 43.972656 58.789062 43.882812 59.335938 44.222656 59.746094 C 44.859375 60.855469 44.828125 62.25 45.726562 63.25 C 45.609375 63.769531 45.960938 64.136719 46.15625 64.550781 C 46.75 66.019531 47.023438 67.613281 47.902344 68.972656 C 48.035156 69.394531 48.164062 69.8125 48.296875 70.238281 C 48.863281 71.828125 49.425781 73.421875 49.992188 75.015625 C 50.171875 75.523438 50.492188 75.980469 50.519531 76.539062 C 50.152344 77.765625 49.851562 78.960938 50.585938 80.207031 C 50.957031 80.832031 51.476562 81.179688 52.046875 81.527344 C 52.242188 81.957031 51.898438 82.332031 51.925781 82.746094 C 51.8125 84.253906 51.359375 85.660156 50.675781 87 C 50.53125 87.28125 50.421875 87.585938 50.335938 87.894531 C 50.191406 88.394531 49.835938 89.042969 50.347656 89.371094 Z M 50.347656 89.371094 " fill-opacity="1" fill-rule="nonzero"/></g></g></g><g clip-path="url(#101fc0a895)"><g clip-path="url(#d6967709ea)"><g clip-path="url(#e829b80f87)"><path fill="#181751" d="M 120.246094 45.347656 C 120.503906 45.859375 120.734375 46.386719 121.023438 46.875 C 121.328125 47.382812 121.269531 47.789062 120.878906 48.222656 C 119.882812 49.332031 118.96875 50.527344 117.914062 51.574219 C 114.148438 55.300781 110.308594 58.921875 105.808594 61.820312 C 102.816406 63.742188 99.839844 65.695312 96.640625 67.210938 C 94.1875 68.371094 91.691406 69.5 89.101562 70.398438 C 85.941406 71.496094 82.761719 72.515625 79.492188 73.195312 C 75.726562 73.972656 71.917969 74.515625 68.066406 74.675781 C 67.582031 74.695312 67.277344 74.632812 67.023438 74.175781 C 65.792969 71.914062 64.789062 69.546875 63.839844 67.167969 C 62.941406 64.925781 61.800781 62.800781 60.808594 60.605469 C 59.941406 58.695312 58.886719 56.867188 57.894531 55.015625 C 57.582031 54.425781 57.664062 54.121094 58.371094 53.976562 C 60.460938 53.542969 62.542969 53.085938 64.617188 52.597656 C 71.160156 51.0625 77.730469 49.660156 84.339844 48.457031 C 86.265625 48.105469 88.023438 47.640625 89.527344 46.128906 C 92.082031 43.558594 94.890625 41.246094 97.59375 38.820312 C 101.613281 35.207031 105.742188 31.71875 109.851562 28.210938 C 110.597656 27.574219 110.902344 27.621094 111.300781 28.488281 C 112.207031 30.449219 113.128906 32.410156 114.148438 34.3125 C 116.136719 38.015625 118.195312 41.679688 120.222656 45.359375 C 120.230469 45.355469 120.242188 45.351562 120.246094 45.347656 Z M 43.167969 56.292969 C 40.074219 57.09375 36.980469 57.90625 33.890625 58.714844 C 33.667969 58.773438 33.402344 59.046875 33.242188 58.71875 C 33.113281 58.449219 33.398438 58.300781 33.597656 58.144531 C 34.597656 57.347656 35.621094 56.574219 36.578125 55.726562 C 38.863281 53.699219 41.160156 51.6875 43.367188 49.574219 C 45.339844 47.683594 47.480469 45.964844 49.550781 44.175781 C 52.425781 41.6875 55.261719 39.15625 58.1875 36.726562 C 60.773438 34.574219 63.519531 32.609375 66.082031 30.421875 C 68.992188 27.9375 72.199219 25.796875 74.828125 22.984375 C 74.964844 22.835938 75.121094 22.796875 75.304688 22.789062 C 77.070312 22.71875 78.710938 22.054688 80.394531 21.632812 C 87.082031 19.964844 93.742188 18.199219 100.46875 16.664062 C 105.492188 15.515625 110.492188 14.226562 115.570312 13.332031 C 119.816406 12.585938 124.03125 11.753906 128.191406 10.648438 C 128.4375 10.582031 128.71875 10.433594 128.875 10.6875 C 129.066406 11.003906 128.699219 11.105469 128.527344 11.242188 C 127.007812 12.464844 125.476562 13.664062 123.960938 14.890625 C 121.363281 16.988281 118.824219 19.160156 116.175781 21.195312 C 112.035156 24.378906 108.074219 27.78125 104.066406 31.132812 C 101.394531 33.363281 98.792969 35.679688 96.199219 38.007812 C 93.363281 40.550781 90.578125 43.144531 87.773438 45.71875 C 87.339844 46.113281 86.824219 46.394531 86.273438 46.519531 C 84.722656 46.878906 83.152344 47.175781 81.589844 47.488281 C 77.945312 48.207031 74.289062 48.890625 70.652344 49.652344 C 67.769531 50.257812 64.914062 51 62.03125 51.59375 C 58.09375 52.402344 54.234375 53.5 50.335938 54.457031 C 51.320312 53.785156 52.3125 53.117188 53.296875 52.445312 C 53.765625 52.140625 54.234375 51.832031 54.703125 51.527344 C 55.777344 50.769531 56.855469 50.007812 57.929688 49.246094 C 58.488281 49.089844 58.921875 48.753906 59.289062 48.320312 C 60.652344 47.605469 61.90625 46.730469 63.082031 45.742188 C 63.648438 45.410156 64.292969 45.199219 64.71875 44.65625 C 65.835938 43.847656 66.953125 43.039062 68.070312 42.230469 C 68.710938 42.050781 69.085938 41.480469 69.644531 41.1875 C 72.433594 39.183594 75.289062 37.269531 77.988281 35.140625 C 79.292969 34.484375 80.605469 33.835938 81.90625 33.171875 C 83.171875 32.519531 83.867188 31.382812 83.511719 30.585938 C 83.144531 29.761719 81.671875 29.382812 80.449219 29.828125 C 79.664062 30.117188 78.867188 30.410156 78.121094 30.792969 C 77.054688 31.34375 76.445312 32.285156 76.144531 33.433594 C 74.558594 34.125 73.398438 35.417969 71.988281 36.363281 C 71.226562 36.878906 70.351562 37.238281 69.714844 37.933594 C 69.207031 38.316406 68.699219 38.703125 68.191406 39.089844 C 67.046875 39.742188 66.039062 40.585938 65.003906 41.398438 C 64.472656 41.769531 63.945312 42.140625 63.414062 42.515625 C 62.117188 43.210938 61.011719 44.183594 59.824219 45.035156 C 59.105469 45.238281 58.726562 45.871094 58.199219 46.3125 C 57.054688 46.742188 56.109375 47.46875 55.183594 48.242188 C 55.125 48.226562 55.054688 48.191406 55.011719 48.207031 C 54.917969 48.242188 54.925781 48.308594 55.015625 48.351562 L 55.023438 48.328125 C 54.59375 48.597656 54.113281 48.804688 53.824219 49.253906 C 52.289062 50.210938 50.722656 51.117188 49.285156 52.230469 C 48.910156 52.429688 48.527344 52.625 48.148438 52.824219 C 47.539062 53.234375 47.101562 53.867188 46.394531 54.152344 C 45.226562 54.617188 44.449219 55.605469 43.484375 56.339844 C 43.375 56.320312 43.261719 56.265625 43.167969 56.292969 Z M 43.167969 56.292969 " fill-opacity="1" fill-rule="nonzero"/></g></g></g><g clip-path="url(#3699fc43dc)"><g clip-path="url(#37dad4d27e)"><g clip-path="url(#f1e9e61bbf)"><path fill="#fbb215" d="M 56.0625 80.898438 C 57.332031 81.964844 58.921875 82.519531 60.238281 83.507812 C 60.589844 83.769531 61.113281 83.90625 60.984375 84.535156 C 60.855469 85.15625 60.261719 85.027344 59.886719 85.234375 C 59.511719 85.441406 59.125 85.199219 58.75 85.113281 C 57.828125 84.902344 57.082031 84.28125 56.082031 83.886719 C 56.863281 85.398438 57.4375 86.8125 57.382812 88.394531 C 57.367188 88.8125 57.492188 89.34375 57.003906 89.523438 C 56.503906 89.707031 56.269531 89.164062 55.992188 88.882812 C 55.109375 87.992188 54.757812 86.761719 54.085938 85.644531 C 53.390625 86.792969 52.980469 88.042969 51.988281 88.886719 C 51.519531 89.285156 50.914062 89.726562 50.351562 89.367188 C 49.84375 89.042969 50.195312 88.394531 50.335938 87.894531 C 50.421875 87.585938 50.53125 87.28125 50.675781 87 C 51.359375 85.65625 51.8125 84.253906 51.925781 82.746094 C 53.460938 82.496094 54.90625 82.019531 56.0625 80.898438 Z M 52.765625 75.402344 C 55.148438 76.582031 55.628906 77.453125 55.242188 79.902344 C 54.234375 80.554688 53.246094 81.25 52.042969 81.527344 C 51.472656 81.183594 50.957031 80.835938 50.585938 80.207031 C 49.851562 78.960938 50.148438 77.765625 50.519531 76.539062 C 51.265625 76.160156 52.015625 75.78125 52.765625 75.402344 Z M 46.386719 54.148438 C 47.097656 53.863281 47.535156 53.230469 48.144531 52.820312 C 48.589844 53.644531 47.929688 54.621094 48.5 55.429688 C 48.125 56.125 47.191406 56.128906 46.796875 56.800781 C 46.140625 57.039062 45.976562 57.445312 46.285156 58.089844 C 46.453125 58.449219 46.75 58.800781 46.609375 59.257812 C 45.660156 58.953125 44.792969 58.394531 43.761719 58.339844 C 43.660156 58.140625 43.558594 57.941406 43.457031 57.738281 C 43.464844 57.269531 43.472656 56.800781 43.480469 56.335938 C 44.445312 55.601562 45.222656 54.609375 46.386719 54.148438 Z M 49.1875 65.417969 C 49.675781 66.714844 50.164062 68.011719 50.648438 69.308594 C 49.734375 69.199219 48.816406 69.085938 47.898438 68.972656 C 47.019531 67.617188 46.75 66.019531 46.152344 64.550781 C 47.238281 64.589844 48.140625 65.261719 49.1875 65.417969 Z M 51.117188 70.71875 C 51.5 71.792969 51.882812 72.871094 52.261719 73.945312 C 51.652344 74.609375 50.773438 74.710938 49.992188 75.019531 C 49.425781 73.425781 48.863281 71.832031 48.296875 70.238281 C 49.238281 70.398438 50.179688 70.558594 51.117188 70.71875 Z M 45.730469 63.253906 C 44.828125 62.253906 44.863281 60.855469 44.222656 59.746094 C 45.332031 59.894531 46.234375 60.644531 47.339844 60.816406 C 47.808594 61.8125 48.1875 62.839844 48.449219 63.910156 C 47.542969 63.691406 46.636719 63.46875 45.730469 63.253906 Z M 49.460938 54.921875 C 49.402344 54.023438 49.34375 53.125 49.28125 52.226562 C 50.714844 51.117188 52.285156 50.207031 53.816406 49.253906 C 53.730469 50.332031 53.617188 51.40625 53.292969 52.445312 C 52.304688 53.117188 51.316406 53.785156 50.328125 54.457031 C 50.039062 54.613281 49.75 54.769531 49.460938 54.921875 Z M 69.636719 41.1875 C 69.429688 40.09375 69.8125 39.019531 69.710938 37.933594 C 70.351562 37.238281 71.222656 36.875 71.984375 36.363281 C 73.394531 35.414062 74.554688 34.121094 76.140625 33.429688 C 76.160156 34.378906 76.597656 34.914062 77.597656 34.863281 C 77.808594 34.851562 77.90625 34.980469 77.980469 35.140625 C 75.285156 37.269531 72.425781 39.183594 69.636719 41.1875 Z M 63.078125 45.742188 C 61.902344 46.730469 60.648438 47.605469 59.28125 48.320312 C 59.34375 47.207031 59.839844 46.160156 59.816406 45.035156 C 61.007812 44.183594 62.113281 43.210938 63.410156 42.515625 C 63.296875 43.585938 63.1875 44.664062 63.078125 45.742188 Z M 68.066406 42.230469 C 66.949219 43.039062 65.832031 43.847656 64.710938 44.65625 C 64.769531 43.566406 65.125 42.5 65 41.394531 C 66.035156 40.589844 67.042969 39.742188 68.1875 39.085938 C 68.144531 40.132812 68.105469 41.179688 68.066406 42.230469 Z M 55.019531 48.324219 C 55.019531 48.324219 55.007812 48.351562 55.007812 48.351562 L 55.082031 48.273438 C 55.082031 48.273438 55.179688 48.238281 55.179688 48.238281 C 56.101562 47.464844 57.050781 46.738281 58.191406 46.308594 C 58.105469 47.289062 58.015625 48.265625 57.925781 49.246094 C 56.847656 50.003906 55.773438 50.765625 54.699219 51.527344 C 54.679688 50.449219 55.175781 49.417969 55.019531 48.324219 Z M 55.019531 48.324219 " fill-opacity="1" fill-rule="nonzero"/></g></g></g><g clip-path="url(#726144938b)"><g clip-path="url(#ed3e89d330)"><g clip-path="url(#257c03b786)"><path fill="#fbb215" d="M 56.0625 80.898438 C 54.90625 82.019531 53.460938 82.492188 51.921875 82.746094 C 51.894531 82.332031 52.238281 81.957031 52.039062 81.527344 C 53.242188 81.25 54.230469 80.550781 55.238281 79.898438 C 55.515625 80.234375 55.789062 80.566406 56.0625 80.898438 Z M 43.761719 58.339844 C 44.792969 58.394531 45.660156 58.953125 46.609375 59.257812 C 46.851562 59.773438 47.09375 60.296875 47.339844 60.8125 C 46.238281 60.640625 45.332031 59.890625 44.222656 59.742188 C 43.886719 59.339844 43.972656 58.789062 43.761719 58.339844 Z M 49.1875 65.417969 C 48.136719 65.257812 47.238281 64.589844 46.15625 64.550781 C 45.964844 64.136719 45.613281 63.769531 45.730469 63.253906 C 46.636719 63.472656 47.542969 63.691406 48.449219 63.910156 C 48.695312 64.410156 48.941406 64.914062 49.1875 65.417969 Z M 47.902344 68.976562 C 48.816406 69.085938 49.734375 69.199219 50.652344 69.3125 C 50.808594 69.78125 50.960938 70.25 51.117188 70.71875 C 50.179688 70.558594 49.238281 70.398438 48.296875 70.238281 C 48.164062 69.816406 48.035156 69.394531 47.902344 68.976562 Z M 52.765625 75.402344 C 52.015625 75.78125 51.265625 76.160156 50.515625 76.539062 C 50.488281 75.980469 50.167969 75.523438 49.988281 75.015625 C 50.773438 74.710938 51.648438 74.609375 52.261719 73.941406 C 52.519531 74.398438 52.816406 74.84375 52.765625 75.402344 Z M 48.5 55.429688 C 47.925781 54.621094 48.585938 53.644531 48.144531 52.820312 C 48.519531 52.625 48.902344 52.425781 49.28125 52.230469 C 49.339844 53.125 49.398438 54.023438 49.457031 54.921875 C 49.140625 55.089844 48.820312 55.261719 48.5 55.429688 Z M 63.078125 45.742188 C 63.1875 44.664062 63.296875 43.589844 63.410156 42.511719 C 63.941406 42.140625 64.46875 41.765625 65 41.394531 C 65.125 42.5 64.769531 43.566406 64.710938 44.65625 C 64.289062 45.199219 63.640625 45.410156 63.078125 45.742188 Z M 69.710938 37.933594 C 69.8125 39.019531 69.425781 40.097656 69.636719 41.1875 C 69.078125 41.480469 68.703125 42.050781 68.066406 42.230469 C 68.105469 41.179688 68.144531 40.132812 68.1875 39.085938 C 68.695312 38.703125 69.203125 38.316406 69.710938 37.933594 Z M 59.820312 45.03125 C 59.84375 46.15625 59.347656 47.203125 59.285156 48.316406 C 58.917969 48.753906 58.480469 49.089844 57.921875 49.242188 C 58.011719 48.265625 58.101562 47.285156 58.191406 46.308594 C 58.722656 45.867188 59.101562 45.238281 59.820312 45.03125 Z M 53.292969 52.445312 C 53.617188 51.40625 53.726562 50.332031 53.816406 49.253906 C 54.105469 48.800781 54.589844 48.59375 55.019531 48.324219 C 55.175781 49.417969 54.679688 50.449219 54.695312 51.527344 C 54.230469 51.832031 53.761719 52.140625 53.292969 52.445312 Z M 55.007812 48.203125 C 55.054688 48.183594 55.121094 48.222656 55.179688 48.238281 C 55.179688 48.238281 55.082031 48.273438 55.082031 48.273438 L 55.007812 48.351562 C 54.917969 48.304688 54.910156 48.242188 55.007812 48.203125 Z M 55.007812 48.203125 " fill-opacity="1" fill-rule="nonzero"/></g></g></g><g fill="#181751" fill-opacity="1"><g transform="translate(149.337649, 142.351269)"><g><path d="M 10.6875 -6.703125 L 4.5625 -6.703125 L 4.5625 -2.5625 L 11.75 -2.5625 L 11.75 0 L 1.375 0 L 1.375 -15.46875 L 11.71875 -15.46875 L 11.71875 -12.875 L 4.5625 -12.875 L 4.5625 -9.203125 L 10.6875 -9.203125 Z M 10.6875 -6.703125 "/></g></g><g transform="translate(161.573829, 142.351269)"><g><path d="M 4.0625 -11.484375 L 4.15625 -10.203125 C 4.96875 -11.203125 6.066406 -11.703125 7.453125 -11.703125 C 8.929688 -11.703125 9.945312 -11.117188 10.5 -9.953125 C 11.3125 -11.117188 12.460938 -11.703125 13.953125 -11.703125 C 15.203125 -11.703125 16.128906 -11.335938 16.734375 -10.609375 C 17.347656 -9.890625 17.65625 -8.800781 17.65625 -7.34375 L 17.65625 0 L 14.578125 0 L 14.578125 -7.328125 C 14.578125 -7.984375 14.445312 -8.457031 14.1875 -8.75 C 13.9375 -9.050781 13.488281 -9.203125 12.84375 -9.203125 C 11.914062 -9.203125 11.273438 -8.765625 10.921875 -7.890625 L 10.9375 0 L 7.875 0 L 7.875 -7.3125 C 7.875 -7.976562 7.738281 -8.457031 7.46875 -8.75 C 7.207031 -9.050781 6.765625 -9.203125 6.140625 -9.203125 C 5.265625 -9.203125 4.632812 -8.84375 4.25 -8.125 L 4.25 0 L 1.171875 0 L 1.171875 -11.484375 Z M 4.0625 -11.484375 "/></g></g><g transform="translate(180.406076, 142.351269)"><g><path d="M 11.515625 -5.640625 C 11.515625 -3.867188 11.113281 -2.445312 10.3125 -1.375 C 9.507812 -0.3125 8.425781 0.21875 7.0625 0.21875 C 5.90625 0.21875 4.96875 -0.1875 4.25 -1 L 4.25 4.421875 L 1.171875 4.421875 L 1.171875 -11.484375 L 4.03125 -11.484375 L 4.125 -10.359375 C 4.875 -11.253906 5.847656 -11.703125 7.046875 -11.703125 C 8.460938 -11.703125 9.5625 -11.175781 10.34375 -10.125 C 11.125 -9.082031 11.515625 -7.640625 11.515625 -5.796875 Z M 8.453125 -5.859375 C 8.453125 -6.929688 8.257812 -7.753906 7.875 -8.328125 C 7.5 -8.910156 6.953125 -9.203125 6.234375 -9.203125 C 5.273438 -9.203125 4.613281 -8.835938 4.25 -8.109375 L 4.25 -3.40625 C 4.625 -2.644531 5.289062 -2.265625 6.25 -2.265625 C 7.71875 -2.265625 8.453125 -3.460938 8.453125 -5.859375 Z M 8.453125 -5.859375 "/></g></g><g transform="translate(192.652878, 142.351269)"><g><path d="M 0.703125 -5.859375 C 0.703125 -6.992188 0.921875 -8.003906 1.359375 -8.890625 C 1.796875 -9.785156 2.425781 -10.476562 3.25 -10.96875 C 4.082031 -11.457031 5.039062 -11.703125 6.125 -11.703125 C 7.675781 -11.703125 8.941406 -11.226562 9.921875 -10.28125 C 10.898438 -9.332031 11.445312 -8.046875 11.5625 -6.421875 L 11.59375 -5.625 C 11.59375 -3.863281 11.097656 -2.445312 10.109375 -1.375 C 9.128906 -0.3125 7.804688 0.21875 6.140625 0.21875 C 4.484375 0.21875 3.160156 -0.3125 2.171875 -1.375 C 1.191406 -2.4375 0.703125 -3.882812 0.703125 -5.71875 Z M 3.765625 -5.625 C 3.765625 -4.539062 3.96875 -3.707031 4.375 -3.125 C 4.789062 -2.550781 5.382812 -2.265625 6.15625 -2.265625 C 6.894531 -2.265625 7.472656 -2.546875 7.890625 -3.109375 C 8.304688 -3.679688 8.515625 -4.597656 8.515625 -5.859375 C 8.515625 -6.921875 8.304688 -7.742188 7.890625 -8.328125 C 7.472656 -8.921875 6.882812 -9.21875 6.125 -9.21875 C 5.375 -9.21875 4.789062 -8.925781 4.375 -8.34375 C 3.96875 -7.757812 3.765625 -6.851562 3.765625 -5.625 Z M 3.765625 -5.625 "/></g></g><g transform="translate(204.952788, 142.351269)"><g><path d="M 11.171875 -4.171875 L 12.6875 -11.484375 L 15.640625 -11.484375 L 12.71875 0 L 10.140625 0 L 7.96875 -7.234375 L 5.78125 0 L 3.234375 0 L 0.296875 -11.484375 L 3.265625 -11.484375 L 4.765625 -4.1875 L 6.859375 -11.484375 L 9.078125 -11.484375 Z M 11.171875 -4.171875 "/></g></g><g transform="translate(220.938423, 142.351269)"><g><path d="M 6.46875 0.21875 C 4.78125 0.21875 3.40625 -0.296875 2.34375 -1.328125 C 1.289062 -2.367188 0.765625 -3.75 0.765625 -5.46875 L 0.765625 -5.765625 C 0.765625 -6.921875 0.988281 -7.953125 1.4375 -8.859375 C 1.882812 -9.773438 2.515625 -10.476562 3.328125 -10.96875 C 4.148438 -11.457031 5.082031 -11.703125 6.125 -11.703125 C 7.695312 -11.703125 8.929688 -11.207031 9.828125 -10.21875 C 10.734375 -9.226562 11.1875 -7.820312 11.1875 -6 L 11.1875 -4.75 L 3.875 -4.75 C 3.976562 -4 4.273438 -3.394531 4.765625 -2.9375 C 5.265625 -2.488281 5.898438 -2.265625 6.671875 -2.265625 C 7.847656 -2.265625 8.769531 -2.691406 9.4375 -3.546875 L 10.953125 -1.859375 C 10.492188 -1.203125 9.867188 -0.691406 9.078125 -0.328125 C 8.296875 0.0351562 7.425781 0.21875 6.46875 0.21875 Z M 6.125 -9.21875 C 5.507812 -9.21875 5.007812 -9.007812 4.625 -8.59375 C 4.25 -8.1875 4.007812 -7.601562 3.90625 -6.84375 L 8.171875 -6.84375 L 8.171875 -7.078125 C 8.160156 -7.765625 7.976562 -8.289062 7.625 -8.65625 C 7.269531 -9.03125 6.769531 -9.21875 6.125 -9.21875 Z M 6.125 -9.21875 "/></g></g><g transform="translate(232.696628, 142.351269)"><g><path d="M 7.640625 -8.609375 C 7.222656 -8.671875 6.851562 -8.703125 6.53125 -8.703125 C 5.375 -8.703125 4.613281 -8.304688 4.25 -7.515625 L 4.25 0 L 1.171875 0 L 1.171875 -11.484375 L 4.078125 -11.484375 L 4.15625 -10.125 C 4.78125 -11.175781 5.632812 -11.703125 6.71875 -11.703125 C 7.0625 -11.703125 7.378906 -11.65625 7.671875 -11.5625 Z M 7.640625 -8.609375 "/></g></g><g transform="translate(240.631026, 142.351269)"><g><path d="M 4.421875 0 L 1.34375 0 L 1.34375 -11.484375 L 4.421875 -11.484375 Z M 1.15625 -14.46875 C 1.15625 -14.925781 1.304688 -15.300781 1.609375 -15.59375 C 1.921875 -15.894531 2.34375 -16.046875 2.875 -16.046875 C 3.394531 -16.046875 3.8125 -15.894531 4.125 -15.59375 C 4.4375 -15.300781 4.59375 -14.925781 4.59375 -14.46875 C 4.59375 -14 4.4375 -13.613281 4.125 -13.3125 C 3.8125 -13.019531 3.394531 -12.875 2.875 -12.875 C 2.363281 -12.875 1.945312 -13.019531 1.625 -13.3125 C 1.3125 -13.613281 1.15625 -14 1.15625 -14.46875 Z M 1.15625 -14.46875 "/></g></g><g transform="translate(246.3986, 142.351269)"><g><path d="M 4 -11.484375 L 4.09375 -10.15625 C 4.914062 -11.1875 6.019531 -11.703125 7.40625 -11.703125 C 8.625 -11.703125 9.53125 -11.34375 10.125 -10.625 C 10.71875 -9.914062 11.019531 -8.847656 11.03125 -7.421875 L 11.03125 0 L 7.96875 0 L 7.96875 -7.34375 C 7.96875 -8 7.820312 -8.472656 7.53125 -8.765625 C 7.25 -9.054688 6.78125 -9.203125 6.125 -9.203125 C 5.257812 -9.203125 4.613281 -8.835938 4.1875 -8.109375 L 4.1875 0 L 1.109375 0 L 1.109375 -11.484375 Z M 4 -11.484375 "/></g></g><g transform="translate(258.581672, 142.351269)"><g><path d="M 0.734375 -5.828125 C 0.734375 -7.585938 1.148438 -9.003906 1.984375 -10.078125 C 2.828125 -11.160156 3.960938 -11.703125 5.390625 -11.703125 C 6.648438 -11.703125 7.628906 -11.269531 8.328125 -10.40625 L 8.453125 -11.484375 L 11.234375 -11.484375 L 11.234375 -0.375 C 11.234375 0.625 11.003906 1.492188 10.546875 2.234375 C 10.085938 2.984375 9.441406 3.550781 8.609375 3.9375 C 7.785156 4.332031 6.820312 4.53125 5.71875 4.53125 C 4.875 4.53125 4.050781 4.359375 3.25 4.015625 C 2.445312 3.679688 1.84375 3.25 1.4375 2.71875 L 2.796875 0.84375 C 3.554688 1.707031 4.484375 2.140625 5.578125 2.140625 C 6.390625 2.140625 7.019531 1.921875 7.46875 1.484375 C 7.925781 1.046875 8.15625 0.425781 8.15625 -0.375 L 8.15625 -0.984375 C 7.445312 -0.179688 6.515625 0.21875 5.359375 0.21875 C 3.984375 0.21875 2.867188 -0.320312 2.015625 -1.40625 C 1.160156 -2.488281 0.734375 -3.921875 0.734375 -5.703125 Z M 3.796875 -5.609375 C 3.796875 -4.566406 4.003906 -3.75 4.421875 -3.15625 C 4.847656 -2.5625 5.425781 -2.265625 6.15625 -2.265625 C 7.082031 -2.265625 7.75 -2.617188 8.15625 -3.328125 L 8.15625 -8.15625 C 7.75 -8.851562 7.085938 -9.203125 6.171875 -9.203125 C 5.429688 -9.203125 4.847656 -8.898438 4.421875 -8.296875 C 4.003906 -7.703125 3.796875 -6.804688 3.796875 -5.609375 Z M 3.796875 -5.609375 "/></g></g></g><g fill="#181751" fill-opacity="1"><g transform="translate(271.00267, 142.351269)"><g/></g><g transform="translate(276.419729, 142.351269)"><g/></g><g transform="translate(281.836788, 142.351269)"><g/></g><g transform="translate(287.253847, 142.351269)"><g/></g></g><g fill="#181751" fill-opacity="1"><g transform="translate(292.670906, 142.351269)"><g><path d="M 1.375 0 L 1.375 -15.46875 L 6.140625 -15.46875 C 7.492188 -15.46875 8.707031 -15.160156 9.78125 -14.546875 C 10.851562 -13.929688 11.691406 -13.054688 12.296875 -11.921875 C 12.898438 -10.796875 13.203125 -9.515625 13.203125 -8.078125 L 13.203125 -7.375 C 13.203125 -5.9375 12.90625 -4.65625 12.3125 -3.53125 C 11.71875 -2.414062 10.882812 -1.550781 9.8125 -0.9375 C 8.738281 -0.320312 7.523438 -0.0078125 6.171875 0 Z M 4.5625 -12.875 L 4.5625 -2.5625 L 6.109375 -2.5625 C 7.347656 -2.5625 8.296875 -2.96875 8.953125 -3.78125 C 9.617188 -4.59375 9.957031 -5.757812 9.96875 -7.28125 L 9.96875 -8.09375 C 9.96875 -9.664062 9.640625 -10.851562 8.984375 -11.65625 C 8.335938 -12.46875 7.390625 -12.875 6.140625 -12.875 Z M 4.5625 -12.875 "/></g></g><g transform="translate(306.808368, 142.351269)"><g><path d="M 4.421875 0 L 1.34375 0 L 1.34375 -11.484375 L 4.421875 -11.484375 Z M 1.15625 -14.46875 C 1.15625 -14.925781 1.304688 -15.300781 1.609375 -15.59375 C 1.921875 -15.894531 2.34375 -16.046875 2.875 -16.046875 C 3.394531 -16.046875 3.8125 -15.894531 4.125 -15.59375 C 4.4375 -15.300781 4.59375 -14.925781 4.59375 -14.46875 C 4.59375 -14 4.4375 -13.613281 4.125 -13.3125 C 3.8125 -13.019531 3.394531 -12.875 2.875 -12.875 C 2.363281 -12.875 1.945312 -13.019531 1.625 -13.3125 C 1.3125 -13.613281 1.15625 -14 1.15625 -14.46875 Z M 1.15625 -14.46875 "/></g></g><g transform="translate(312.575943, 142.351269)"><g><path d="M 0.734375 -5.828125 C 0.734375 -7.585938 1.148438 -9.003906 1.984375 -10.078125 C 2.828125 -11.160156 3.960938 -11.703125 5.390625 -11.703125 C 6.648438 -11.703125 7.628906 -11.269531 8.328125 -10.40625 L 8.453125 -11.484375 L 11.234375 -11.484375 L 11.234375 -0.375 C 11.234375 0.625 11.003906 1.492188 10.546875 2.234375 C 10.085938 2.984375 9.441406 3.550781 8.609375 3.9375 C 7.785156 4.332031 6.820312 4.53125 5.71875 4.53125 C 4.875 4.53125 4.050781 4.359375 3.25 4.015625 C 2.445312 3.679688 1.84375 3.25 1.4375 2.71875 L 2.796875 0.84375 C 3.554688 1.707031 4.484375 2.140625 5.578125 2.140625 C 6.390625 2.140625 7.019531 1.921875 7.46875 1.484375 C 7.925781 1.046875 8.15625 0.425781 8.15625 -0.375 L 8.15625 -0.984375 C 7.445312 -0.179688 6.515625 0.21875 5.359375 0.21875 C 3.984375 0.21875 2.867188 -0.320312 2.015625 -1.40625 C 1.160156 -2.488281 0.734375 -3.921875 0.734375 -5.703125 Z M 3.796875 -5.609375 C 3.796875 -4.566406 4.003906 -3.75 4.421875 -3.15625 C 4.847656 -2.5625 5.425781 -2.265625 6.15625 -2.265625 C 7.082031 -2.265625 7.75 -2.617188 8.15625 -3.328125 L 8.15625 -8.15625 C 7.75 -8.851562 7.085938 -9.203125 6.171875 -9.203125 C 5.429688 -9.203125 4.847656 -8.898438 4.421875 -8.296875 C 4.003906 -7.703125 3.796875 -6.804688 3.796875 -5.609375 Z M 3.796875 -5.609375 "/></g></g><g transform="translate(324.992692, 142.351269)"><g><path d="M 4.421875 0 L 1.34375 0 L 1.34375 -11.484375 L 4.421875 -11.484375 Z M 1.15625 -14.46875 C 1.15625 -14.925781 1.304688 -15.300781 1.609375 -15.59375 C 1.921875 -15.894531 2.34375 -16.046875 2.875 -16.046875 C 3.394531 -16.046875 3.8125 -15.894531 4.125 -15.59375 C 4.4375 -15.300781 4.59375 -14.925781 4.59375 -14.46875 C 4.59375 -14 4.4375 -13.613281 4.125 -13.3125 C 3.8125 -13.019531 3.394531 -12.875 2.875 -12.875 C 2.363281 -12.875 1.945312 -13.019531 1.625 -13.3125 C 1.3125 -13.613281 1.15625 -14 1.15625 -14.46875 Z M 1.15625 -14.46875 "/></g></g><g transform="translate(330.760266, 142.351269)"><g><path d="M 4.859375 -14.3125 L 4.859375 -11.484375 L 6.8125 -11.484375 L 6.8125 -9.234375 L 4.859375 -9.234375 L 4.859375 -3.5 C 4.859375 -3.082031 4.9375 -2.78125 5.09375 -2.59375 C 5.257812 -2.40625 5.570312 -2.3125 6.03125 -2.3125 C 6.375 -2.3125 6.675781 -2.335938 6.9375 -2.390625 L 6.9375 -0.0625 C 6.332031 0.125 5.710938 0.21875 5.078125 0.21875 C 2.921875 0.21875 1.820312 -0.867188 1.78125 -3.046875 L 1.78125 -9.234375 L 0.109375 -9.234375 L 0.109375 -11.484375 L 1.78125 -11.484375 L 1.78125 -14.3125 Z M 4.859375 -14.3125 "/></g></g><g transform="translate(338.110472, 142.351269)"><g><path d="M 7.84375 0 C 7.695312 -0.28125 7.59375 -0.625 7.53125 -1.03125 C 6.789062 -0.195312 5.820312 0.21875 4.625 0.21875 C 3.5 0.21875 2.566406 -0.101562 1.828125 -0.75 C 1.085938 -1.40625 0.71875 -2.234375 0.71875 -3.234375 C 0.71875 -4.453125 1.171875 -5.382812 2.078125 -6.03125 C 2.984375 -6.6875 4.285156 -7.015625 5.984375 -7.015625 L 7.40625 -7.015625 L 7.40625 -7.671875 C 7.40625 -8.203125 7.265625 -8.628906 6.984375 -8.953125 C 6.710938 -9.273438 6.285156 -9.4375 5.703125 -9.4375 C 5.179688 -9.4375 4.773438 -9.3125 4.484375 -9.0625 C 4.191406 -8.8125 4.046875 -8.472656 4.046875 -8.046875 L 0.984375 -8.046875 C 0.984375 -8.703125 1.1875 -9.3125 1.59375 -9.875 C 2 -10.445312 2.578125 -10.894531 3.328125 -11.21875 C 4.078125 -11.539062 4.921875 -11.703125 5.859375 -11.703125 C 7.273438 -11.703125 8.398438 -11.34375 9.234375 -10.625 C 10.066406 -9.914062 10.484375 -8.921875 10.484375 -7.640625 L 10.484375 -2.65625 C 10.492188 -1.5625 10.644531 -0.738281 10.9375 -0.1875 L 10.9375 0 Z M 5.296875 -2.140625 C 5.753906 -2.140625 6.171875 -2.238281 6.546875 -2.4375 C 6.929688 -2.632812 7.21875 -2.90625 7.40625 -3.25 L 7.40625 -5.21875 L 6.25 -5.21875 C 4.71875 -5.21875 3.898438 -4.6875 3.796875 -3.625 L 3.796875 -3.453125 C 3.796875 -3.066406 3.925781 -2.75 4.1875 -2.5 C 4.457031 -2.257812 4.828125 -2.140625 5.296875 -2.140625 Z M 5.296875 -2.140625 "/></g></g><g transform="translate(349.773081, 142.351269)"><g><path d="M 4.421875 0 L 1.34375 0 L 1.34375 -16.3125 L 4.421875 -16.3125 Z M 4.421875 0 "/></g></g><g transform="translate(355.540656, 142.351269)"><g/></g><g transform="translate(360.957715, 142.351269)"><g><path d="M 5.546875 -15.46875 L 9.515625 -4.25 L 13.46875 -15.46875 L 17.65625 -15.46875 L 17.65625 0 L 14.453125 0 L 14.453125 -4.234375 L 14.765625 -11.515625 L 10.59375 0 L 8.40625 0 L 4.25 -11.515625 L 4.5625 -4.234375 L 4.5625 0 L 1.375 0 L 1.375 -15.46875 Z M 5.546875 -15.46875 "/></g></g><g transform="translate(380.013017, 142.351269)"><g><path d="M 4.421875 0 L 1.34375 0 L 1.34375 -11.484375 L 4.421875 -11.484375 Z M 1.15625 -14.46875 C 1.15625 -14.925781 1.304688 -15.300781 1.609375 -15.59375 C 1.921875 -15.894531 2.34375 -16.046875 2.875 -16.046875 C 3.394531 -16.046875 3.8125 -15.894531 4.125 -15.59375 C 4.4375 -15.300781 4.59375 -14.925781 4.59375 -14.46875 C 4.59375 -14 4.4375 -13.613281 4.125 -13.3125 C 3.8125 -13.019531 3.394531 -12.875 2.875 -12.875 C 2.363281 -12.875 1.945312 -13.019531 1.625 -13.3125 C 1.3125 -13.613281 1.15625 -14 1.15625 -14.46875 Z M 1.15625 -14.46875 "/></g></g><g transform="translate(385.780592, 142.351269)"><g><path d="M 4 -11.484375 L 4.09375 -10.15625 C 4.914062 -11.1875 6.019531 -11.703125 7.40625 -11.703125 C 8.625 -11.703125 9.53125 -11.34375 10.125 -10.625 C 10.71875 -9.914062 11.019531 -8.847656 11.03125 -7.421875 L 11.03125 0 L 7.96875 0 L 7.96875 -7.34375 C 7.96875 -8 7.820312 -8.472656 7.53125 -8.765625 C 7.25 -9.054688 6.78125 -9.203125 6.125 -9.203125 C 5.257812 -9.203125 4.613281 -8.835938 4.1875 -8.109375 L 4.1875 0 L 1.109375 0 L 1.109375 -11.484375 Z M 4 -11.484375 "/></g></g><g transform="translate(397.963663, 142.351269)"><g><path d="M 0.703125 -5.828125 C 0.703125 -7.617188 1.101562 -9.046875 1.90625 -10.109375 C 2.707031 -11.171875 3.804688 -11.703125 5.203125 -11.703125 C 6.316406 -11.703125 7.238281 -11.285156 7.96875 -10.453125 L 7.96875 -16.3125 L 11.0625 -16.3125 L 11.0625 0 L 8.28125 0 L 8.140625 -1.21875 C 7.367188 -0.257812 6.382812 0.21875 5.1875 0.21875 C 3.832031 0.21875 2.742188 -0.3125 1.921875 -1.375 C 1.109375 -2.445312 0.703125 -3.929688 0.703125 -5.828125 Z M 3.765625 -5.609375 C 3.765625 -4.535156 3.953125 -3.707031 4.328125 -3.125 C 4.703125 -2.550781 5.25 -2.265625 5.96875 -2.265625 C 6.914062 -2.265625 7.582031 -2.664062 7.96875 -3.46875 L 7.96875 -8 C 7.59375 -8.800781 6.929688 -9.203125 5.984375 -9.203125 C 4.503906 -9.203125 3.765625 -8.003906 3.765625 -5.609375 Z M 3.765625 -5.609375 "/></g></g><g transform="translate(410.221087, 142.351269)"><g><path d="M 7.40625 -3.171875 C 7.40625 -3.546875 7.21875 -3.84375 6.84375 -4.0625 C 6.46875 -4.28125 5.875 -4.472656 5.0625 -4.640625 C 2.320312 -5.210938 0.953125 -6.375 0.953125 -8.125 C 0.953125 -9.144531 1.375 -9.992188 2.21875 -10.671875 C 3.070312 -11.359375 4.179688 -11.703125 5.546875 -11.703125 C 7.003906 -11.703125 8.171875 -11.359375 9.046875 -10.671875 C 9.921875 -9.984375 10.359375 -9.09375 10.359375 -8 L 7.28125 -8 C 7.28125 -8.4375 7.140625 -8.796875 6.859375 -9.078125 C 6.578125 -9.367188 6.132812 -9.515625 5.53125 -9.515625 C 5.019531 -9.515625 4.617188 -9.394531 4.328125 -9.15625 C 4.046875 -8.925781 3.90625 -8.628906 3.90625 -8.265625 C 3.90625 -7.929688 4.066406 -7.660156 4.390625 -7.453125 C 4.710938 -7.242188 5.253906 -7.0625 6.015625 -6.90625 C 6.785156 -6.757812 7.429688 -6.585938 7.953125 -6.390625 C 9.578125 -5.796875 10.390625 -4.765625 10.390625 -3.296875 C 10.390625 -2.253906 9.9375 -1.40625 9.03125 -0.75 C 8.132812 -0.101562 6.972656 0.21875 5.546875 0.21875 C 4.585938 0.21875 3.734375 0.046875 2.984375 -0.296875 C 2.242188 -0.640625 1.660156 -1.109375 1.234375 -1.703125 C 0.804688 -2.304688 0.59375 -2.957031 0.59375 -3.65625 L 3.5 -3.65625 C 3.53125 -3.101562 3.734375 -2.679688 4.109375 -2.390625 C 4.484375 -2.109375 4.988281 -1.96875 5.625 -1.96875 C 6.207031 -1.96875 6.648438 -2.078125 6.953125 -2.296875 C 7.253906 -2.523438 7.40625 -2.816406 7.40625 -3.171875 Z M 7.40625 -3.171875 "/></g></g></g><g clip-path="url(#fc662025bf)"><path fill="#181751" d="M 286.277344 42.199219 C 286.277344 41.984375 286.105469 41.8125 285.890625 41.8125 L 285.152344 41.8125 L 285.152344 33.90625 C 285.152344 33.691406 284.980469 33.519531 284.765625 33.519531 L 278.261719 33.519531 C 278.046875 33.519531 277.875 33.691406 277.875 33.90625 L 277.875 41.8125 L 277.136719 41.8125 C 276.921875 41.8125 276.75 41.984375 276.75 42.199219 L 276.75 44.277344 C 274.933594 44.472656 273.515625 46.011719 273.515625 47.878906 L 273.515625 85.714844 C 273.515625 87.582031 274.933594 89.125 276.75 89.316406 L 276.75 135.703125 C 276.75 135.722656 276.757812 135.734375 276.757812 135.753906 C 276.761719 135.765625 276.757812 135.777344 276.757812 135.789062 L 279.796875 149.191406 L 280.296875 151.390625 C 280.429688 151.972656 280.917969 152.363281 281.511719 152.363281 C 282.109375 152.363281 282.597656 151.972656 282.730469 151.390625 L 283.226562 149.191406 L 286.269531 135.789062 C 286.269531 135.777344 286.265625 135.765625 286.269531 135.753906 C 286.269531 135.734375 286.277344 135.722656 286.277344 135.703125 Z M 286.277344 42.199219 " fill-opacity="1" fill-rule="nonzero"/></g><path fill="#181751" d="M 280.761719 47.878906 L 280.761719 85.714844 C 280.761719 87.582031 279.339844 89.125 277.527344 89.316406 L 277.527344 135.316406 L 285.5 135.316406 L 285.5 42.585938 L 277.527344 42.585938 L 277.527344 44.277344 C 279.339844 44.472656 280.761719 46.011719 280.761719 47.878906 Z M 280.761719 47.878906 " fill-opacity="1" fill-rule="nonzero"/><path fill="#fbb215" d="M 285.402344 136.09375 L 282.539062 148.71875 L 280.488281 148.71875 L 277.625 136.09375 Z M 284.375 34.296875 L 278.652344 34.296875 L 278.652344 41.746094 L 284.375 41.746094 Z M 284.375 34.296875 " fill-opacity="1" fill-rule="nonzero"/><path fill="#fbb215" d="M 281.054688 151.21875 L 280.664062 149.496094 L 282.363281 149.496094 L 281.972656 151.21875 C 281.910156 151.488281 281.695312 151.585938 281.515625 151.585938 C 281.332031 151.585938 281.117188 151.488281 281.054688 151.21875 Z M 277.136719 88.5625 C 278.707031 88.5625 279.984375 87.285156 279.984375 85.714844 L 279.984375 47.878906 C 279.984375 46.308594 278.707031 45.03125 277.136719 45.03125 C 275.570312 45.03125 274.292969 46.308594 274.292969 47.878906 L 274.292969 85.714844 C 274.292969 87.285156 275.566406 88.5625 277.136719 88.5625 Z M 277.136719 88.5625 " fill-opacity="1" fill-rule="nonzero"/><g clip-path="url(#5cdab593f1)"><path fill="#181751" d="M 286.277344 42.199219 C 286.277344 41.984375 286.105469 41.8125 285.890625 41.8125 L 285.152344 41.8125 L 285.152344 33.90625 C 285.152344 33.691406 284.980469 33.519531 284.765625 33.519531 L 278.261719 33.519531 C 278.046875 33.519531 277.875 33.691406 277.875 33.90625 L 277.875 41.8125 L 277.136719 41.8125 C 276.921875 41.8125 276.75 41.984375 276.75 42.199219 L 276.75 44.277344 C 274.933594 44.472656 273.515625 46.011719 273.515625 47.878906 L 273.515625 85.714844 C 273.515625 87.582031 274.933594 89.125 276.75 89.316406 L 276.75 135.703125 C 276.75 135.722656 276.757812 135.734375 276.757812 135.753906 C 276.761719 135.765625 276.757812 135.777344 276.757812 135.789062 L 279.796875 149.191406 L 280.296875 151.390625 C 280.429688 151.972656 280.917969 152.363281 281.511719 152.363281 C 282.109375 152.363281 282.597656 151.972656 282.730469 151.390625 L 283.226562 149.191406 L 286.269531 135.789062 C 286.269531 135.777344 286.265625 135.765625 286.269531 135.753906 C 286.269531 135.734375 286.277344 135.722656 286.277344 135.703125 Z M 278.652344 34.296875 L 284.375 34.296875 L 284.375 41.746094 L 278.652344 41.746094 Z M 274.292969 85.714844 L 274.292969 47.878906 C 274.292969 46.308594 275.566406 45.03125 277.136719 45.03125 C 278.707031 45.03125 279.984375 46.308594 279.984375 47.878906 L 279.984375 85.714844 C 279.984375 87.285156 278.707031 88.5625 277.136719 88.5625 C 275.566406 88.5625 274.292969 87.285156 274.292969 85.714844 Z M 281.972656 151.21875 C 281.910156 151.488281 281.695312 151.585938 281.511719 151.585938 C 281.332031 151.585938 281.117188 151.488281 281.054688 151.21875 L 280.664062 149.496094 L 282.363281 149.496094 Z M 282.539062 148.71875 L 280.488281 148.71875 L 277.625 136.09375 L 285.402344 136.09375 Z M 277.527344 135.316406 L 277.527344 89.316406 C 279.339844 89.125 280.761719 87.582031 280.761719 85.714844 L 280.761719 47.878906 C 280.761719 46.011719 279.339844 44.472656 277.527344 44.277344 L 277.527344 42.585938 L 285.5 42.585938 L 285.5 135.316406 Z M 277.527344 135.316406 " fill-opacity="1" fill-rule="nonzero"/></g></svg>